# xmcd
#
# Track frame offsets:
#	150
#	32547
#	56966
#	94292
#	131716
#	190062
#
# Disc length: 3294 seconds
#
# Revision: 0
# Processed by: cddbd v1.5.2PL0 Copyright (c) Steve Scherf et al.
# Submitted via: audiograbber 1.83.01
#
DISCID=510cdc06
DTITLE=Grateful Dead - 94-06-18 Autzen Stadium, Eugene OR
DYEAR=1900
DGENRE=
TTITLE0=China Cat Sunflower
TTITLE1=I Know You Rider
TTITLE2=Man Smart, Women Smarter
TTITLE3=Crazy Fingers
TTITLE4=Corrina
TTITLE5=Drums
EXTD=
EXTT0=
EXTT1=
EXTT2=
EXTT3=
EXTT4=
EXTT5=
PLAYORDER=
